<svg width="512" height="512" xmlns="http://www.w3.org/2000/svg" viewBox="0 0 512 512">
  <!-- Maskable icon needs safe zone (center 80%) -->
  <rect width="512" height="512" fill="#1976d2"/>
  <g transform="translate(102, 102) scale(0.6)">
    <path fill="#ffffff" d="M256 42.667C179.627 42.667 117.333 104.96 117.333 181.333c0 76.374 62.294 138.667 138.667 138.667s138.667-62.293 138.667-138.667c0-76.373-62.294-138.666-138.667-138.666zm-33.28 259.04l9.54-5.887-27.734-42.8-49.387-13.173-2.947 10.907c-12.133-18.187-19.76-39.147-20.453-61.707l8.84 7.28 32.227-39.507-2.6-50.773-10.92.693c13.867-17.507 32.56-31.36 54.067-39l-4.68 10.227 47.66 18.36 47.66-18.36-3.98-10.573c21.507 7.973 39.733 21.493 53.547 39l-10.92-.693-2.6 50.773 32.227 39.507 8.84-7.28c-1.04 23.387-8.493 44.853-20.8 63.093l-2.947-10.907-49.387 13.173-27.733 42.8 9.54 5.88c-10.574 2.947-21.667 4.68-33.28 4.68s-23.227-1.733-33.8-4.16z"/>
    <path fill="#1976d2" d="M256 127.333l-45.867 36.054 18.36 54.946H256h27.507l18.36-54.946z"/>
  </g>
</svg>
