<svg width="512" height="512" xmlns="http://www.w3.org/2000/svg" viewBox="0 0 387 387">
  <g transform="translate(-361 -114)">
    <path d="M554.5 154.312C469.844 154.312 401.312 222.844 401.312 307.5 401.312 392.156 469.844 460.688 554.5 460.688 639.156 460.688 707.688 392.156 707.688 307.5 707.688 222.844 639.156 154.312 554.5 154.312ZM517.816 439.322 528.297 432.872 497.659 385.706 443.237 371.194 440.013 383.288C426.709 363.131 418.244 338.944 417.438 313.144L427.112 321.206 462.587 277.669 459.766 221.634 447.672 222.441C462.991 203.091 483.55 187.772 507.334 179.306L502.094 190.594 554.5 210.75 606.906 190.594 602.472 178.903C626.256 187.772 646.412 202.688 662.134 222.038L650.041 221.231 647.219 277.266 682.694 320.803 692.369 312.741C691.159 338.541 683.097 362.325 669.794 382.884L666.569 370.791 612.147 385.303 581.509 432.469 591.991 438.919C580.3 442.144 567.803 444.159 555.306 444.159 542.809 444.159 529.506 442.95 517.816 439.322Z"/>
    <path d="M606.906 299.438 554.5 259.125 502.094 299.438 522.25 359.906 554.5 359.906 586.75 359.906Z"/>
  </g>
</svg>
