<svg width="192" height="192" xmlns="http://www.w3.org/2000/svg" viewBox="0 0 192 192">
  <rect width="192" height="192" fill="#1976d2" rx="24"/>
  <g transform="translate(24, 24) scale(0.75)">
    <path fill="#ffffff" d="M96 16C51.817 16 16 51.817 16 96s35.817 80 80 80 80-35.817 80-80S140.183 16 96 16zm-19.2 149.6l5.5-3.4-16-24.7-28.5-7.6-1.7 6.3c-7-10.5-11.4-22.6-11.8-35.6l5.1 4.2 18.6-22.8-1.5-29.3-6.3.4c8-10.1 18.8-18.1 31.2-22.5l-2.7 5.9 27.5 10.6 27.5-10.6-2.3-6.1c12.4 4.6 22.9 12.4 30.9 22.5l-6.3-.4-1.5 29.3 18.6 22.8 5.1-4.2c-.6 13.5-4.9 25.9-12 36.4l-1.7-6.3-28.5 7.6-16 24.7 5.5 3.4c-6.1 1.7-12.5 2.7-19.2 2.7s-13.4-1-19.5-2.4z"/>
    <path fill="#1976d2" d="M96 73.5L69.5 94.3l10.6 31.7H96h15.9l10.6-31.7z"/>
  </g>
</svg>
