<?xml version="1.0" encoding="UTF-8"?>
<svg width="32" height="32" viewBox="0 0 32 32" version="1.1" xmlns="http://www.w3.org/2000/svg">
    <circle cx="16" cy="16" r="15" fill="white" stroke="black" stroke-width="2"/>
    <path d="M16,1 C7.716,1 1,7.716 1,16 C1,24.284 7.716,31 16,31 C24.284,31 31,24.284 31,16 C31,7.716 24.284,1 16,1 Z M16,3 C23.18,3 29,8.82 29,16 C29,23.18 23.18,29 16,29 C8.82,29 3,23.18 3,16 C3,8.82 8.82,3 16,3 Z" fill="black"/>
    <path d="M16,7 L19,13 L25,14 L21,19 L22,25 L16,22 L10,25 L11,19 L7,14 L13,13 Z" fill="black"/>
</svg>
